<svg width="16" height="16" viewBox="0 0 16 16" xmlns="http://www.w3.org/2000/svg">
	<path fill="#c00000" d="M 8,0 C 7.7058986,0 7.4109021,0.30139625 7.1855469,0.90234375 L 5.3378906,5.8300781 C 5.2559225,6.0486598 5.1908259,6.292468 5.1386719,6.5507812 6.0506884,6.193573 7.0205489,6.0068832 8,6 8.9768002,6.0005071 9.945249,6.1798985 10.857422,6.5292969 10.805917,6.2790667 10.741782,6.0425374 10.662109,5.8300781 L 8.8144531,0.90234375 C 8.5890978,0.30139615 8.2941007,0 8,0 Z" />
	<path d="M 8,5.9999998 C 7.0205501,6.006884 6.0506874,6.1935733 5.138672,6.5507817 4.9040515,7.7126196 4.9691485,9.1866095 5.3378906,10.169922 l 1.8476563,4.927734 c 0.4507105,1.201895 1.1781958,1.201894 1.628906,0 L 10.662109,10.169922 C 11.033147,9.1804875 11.097283,7.6944254 10.857422,6.5292967 9.9452497,6.1798989 8.9767993,6.0005076 8,5.9999998 Z m -1e-7,0.7499999 A 1.25,1.258 90 0 1 9.2578124,7.9999996 1.25,1.258 90 0 1 8,9.2500001 a 1.25,1.258 90 0 1 -1.2578124,-1.25 1.25,1.258 90 0 1 1.2578123,-1.2500004 z" />
</svg>