<svg width="16" height="16" viewBox="0 0 16 16" xmlns="http://www.w3.org/2000/svg">
	<path d="M 8,1.5 A 6.5,6.5 0 0 0 1.5,8 6.5,6.5 0 0 0 8,14.5 6.5,6.5 0 0 0 14.5,8 6.5,6.5 0 0 0 8,1.5 Z m 0,2 A 4.5,4.5 0 0 1 12.5,8 4.5,4.5 0 0 1 8,12.5 4.5,4.5 0 0 1 3.5,8 4.5,4.5 0 0 1 8,3.5 Z" />
	<rect width="1.5" height="4" x="7.25" y="0.5" rx="0.5" ry="0.5" />
	<rect width="1.5" height="4" x="7.25" y="11.5" rx="0.5" ry="0.5" />
	<rect width="4" height="1.5" x="0.5" y="7.25" rx="0.5" ry="0.5" />
	<rect width="4" height="1.5" x="11.5" y="7.25" ry="0.5" rx="0.5" />
	<circle cx="8" cy="8" r="1" />
</svg>